<svg xmlns="http://www.w3.org/2000/svg" xmlns:xlink="http://www.w3.org/1999/xlink" viewBox="0 0 72 72" width="72" height="72" preserveAspectRatio="xMidYMid meet" style="width: 100%; height: 100%; transform: translate3d(0px, 0px, 0px); content-visibility: visible;"><defs><clipPath id="__lottie_element_237"><rect width="72" height="72" x="0" y="0"></rect></clipPath></defs><g clip-path="url(#__lottie_element_237)"><g transform="matrix(1.0055899620056152,0,0,1.0055899620056152,36,49.5)" opacity="1" style="display: block;"><g opacity="1" transform="matrix(1,0,0,1,0,0)"><path fill="rgb(107,180,253)" fill-opacity="1" d=" M0,-21.25 C0,-21.25 0,-21.25 0,-21.25 C11.736000061035156,-21.25 21.25,-11.736000061035156 21.25,0 C21.25,0 21.25,0 21.25,0 C21.25,11.736000061035156 11.736000061035156,21.25 0,21.25 C0,21.25 0,21.25 0,21.25 C-11.736000061035156,21.25 -21.25,11.736000061035156 -21.25,0 C-21.25,0 -21.25,0 -21.25,0 C-21.25,-11.736000061035156 -11.736000061035156,-21.25 0,-21.25z"></path></g></g><g transform="matrix(0,0,0,0,26.75,1.25)" opacity="1" style="display: none;"><g opacity="1" transform="matrix(1,0,0,1,0,0)"><path fill="rgb(107,180,253)" fill-opacity="1" d=" M0,-21.25 C0,-21.25 0,-21.25 0,-21.25 C11.736000061035156,-21.25 21.25,-11.736000061035156 21.25,0 C21.25,0 21.25,0 21.25,0 C21.25,11.736000061035156 11.736000061035156,21.25 0,21.25 C0,21.25 0,21.25 0,21.25 C-11.736000061035156,21.25 -21.25,11.736000061035156 -21.25,0 C-21.25,0 -21.25,0 -21.25,0 C-21.25,-11.736000061035156 -11.736000061035156,-21.25 0,-21.25z"></path></g></g><g transform="matrix(0,0,0,0,44.25,1.25)" opacity="1" style="display: none;"><g opacity="1" transform="matrix(1,0,0,1,0,0)"><path fill="rgb(107,180,253)" fill-opacity="1" d=" M0,-21.25 C0,-21.25 0,-21.25 0,-21.25 C11.736000061035156,-21.25 21.25,-11.736000061035156 21.25,0 C21.25,0 21.25,0 21.25,0 C21.25,11.736000061035156 11.736000061035156,21.25 0,21.25 C0,21.25 0,21.25 0,21.25 C-11.736000061035156,21.25 -21.25,11.736000061035156 -21.25,0 C-21.25,0 -21.25,0 -21.25,0 C-21.25,-11.736000061035156 -11.736000061035156,-21.25 0,-21.25z"></path></g></g><g transform="matrix(0,0,0,0,31,1.25)" opacity="1" style="display: none;"><g opacity="1" transform="matrix(1,0,0,1,0,0)"><path fill="rgb(107,180,253)" fill-opacity="1" d=" M0,-21.25 C0,-21.25 0,-21.25 0,-21.25 C11.736000061035156,-21.25 21.25,-11.736000061035156 21.25,0 C21.25,0 21.25,0 21.25,0 C21.25,11.736000061035156 11.736000061035156,21.25 0,21.25 C0,21.25 0,21.25 0,21.25 C-11.736000061035156,21.25 -21.25,11.736000061035156 -21.25,0 C-21.25,0 -21.25,0 -21.25,0 C-21.25,-11.736000061035156 -11.736000061035156,-21.25 0,-21.25z"></path></g></g><g transform="matrix(0.3279999792575836,0,0,0.3279999792575836,26.75,19.19191551208496)" opacity="1" style="display: block;"><g opacity="1" transform="matrix(1,0,0,1,0,0)"><path fill="rgb(107,180,253)" fill-opacity="1" d=" M0,-21.25 C0,-21.25 0,-21.25 0,-21.25 C11.736000061035156,-21.25 21.25,-11.736000061035156 21.25,0 C21.25,0 21.25,0 21.25,0 C21.25,11.736000061035156 11.736000061035156,21.25 0,21.25 C0,21.25 0,21.25 0,21.25 C-11.736000061035156,21.25 -21.25,11.736000061035156 -21.25,0 C-21.25,0 -21.25,0 -21.25,0 C-21.25,-11.736000061035156 -11.736000061035156,-21.25 0,-21.25z"></path></g></g><g transform="matrix(0.4314444363117218,0,0,0.4314444363117218,44.25,31.13862419128418)" opacity="1" style="display: block;"><g opacity="1" transform="matrix(1,0,0,1,0,0)"><path fill="rgb(107,180,253)" fill-opacity="1" d=" M0,-21.25 C0,-21.25 0,-21.25 0,-21.25 C11.736000061035156,-21.25 21.25,-11.736000061035156 21.25,0 C21.25,0 21.25,0 21.25,0 C21.25,11.736000061035156 11.736000061035156,21.25 0,21.25 C0,21.25 0,21.25 0,21.25 C-11.736000061035156,21.25 -21.25,11.736000061035156 -21.25,0 C-21.25,0 -21.25,0 -21.25,0 C-21.25,-11.736000061035156 -11.736000061035156,-21.25 0,-21.25z"></path></g></g><g transform="matrix(0.550000011920929,0,0,0.550000011920929,31,44.61418151855469)" opacity="1" style="display: block;"><g opacity="1" transform="matrix(1,0,0,1,0,0)"><path fill="rgb(107,180,253)" fill-opacity="1" d=" M0,-21.25 C0,-21.25 0,-21.25 0,-21.25 C11.736000061035156,-21.25 21.25,-11.736000061035156 21.25,0 C21.25,0 21.25,0 21.25,0 C21.25,11.736000061035156 11.736000061035156,21.25 0,21.25 C0,21.25 0,21.25 0,21.25 C-11.736000061035156,21.25 -21.25,11.736000061035156 -21.25,0 C-21.25,0 -21.25,0 -21.25,0 C-21.25,-11.736000061035156 -11.736000061035156,-21.25 0,-21.25z"></path></g></g><g transform="matrix(1,0,0,1,675.7020263671875,1086.3380126953125)" opacity="1" style="display: block;"><g opacity="1" transform="matrix(1,0,0,1,0,0)"><path stroke-linecap="round" stroke-linejoin="round" fill-opacity="0" stroke="rgb(255,255,255)" stroke-opacity="1" stroke-width="1.875" d=" M-639.7020263671875,-1048.4520263671875 C-639.7020263671875,-1048.4520263671875 -639.7020263671875,-1034.1600341796875 -639.7020263671875,-1034.1600341796875 M-639.7020263671875,-1034.1600341796875 C-639.7020263671875,-1034.1600341796875 -646.197998046875,-1039.3570556640625 -646.197998046875,-1039.3570556640625 M-639.7020263671875,-1034.1600341796875 C-639.7020263671875,-1034.1600341796875 -633.2059936523438,-1039.3570556640625 -633.2059936523438,-1039.3570556640625"></path></g></g><g transform="matrix(1.0040199756622314,0,0,1,36,58)" opacity="1" style="display: block;"><g opacity="1" transform="matrix(1,0,0,1,0,0)"><path stroke-linecap="round" stroke-linejoin="round" fill-opacity="0" stroke="rgb(255,255,255)" stroke-opacity="1" stroke-width="1.875" d=" M-10.394000053405762,0 C-10.394000053405762,0 10.394000053405762,0 10.394000053405762,0"></path></g></g></g></svg>