<svg xmlns="http://www.w3.org/2000/svg" xmlns:xlink="http://www.w3.org/1999/xlink" width="1039" zoomAndPan="magnify" viewBox="0 0 779.25 405.749988" height="541" preserveAspectRatio="xMidYMid meet" version="1.0"><defs><clipPath id="47082885a5"><path d="M 1 18 L 690 18 L 690 357.46875 L 1 357.46875 Z M 1 18 " clip-rule="nonzero"/></clipPath></defs><g clip-path="url(#47082885a5)"><path fill="#374e25" d="M 689.808594 357.53125 L 686.117188 357.53125 L 686.117188 356.179688 C 685.546875 238.21875 617.75 124.074219 513.09375 65.730469 C 413.320312 10.113281 285.886719 8.140625 183.746094 62.300781 C 96.136719 108.753906 30.136719 195.019531 10.714844 292.871094 C 6.488281 314.15625 4.460938 335.84375 4.550781 357.53125 L 1.285156 357.53125 C 1.457031 293.710938 19.417969 229.738281 54.484375 175.648438 C 102.832031 101.066406 181.128906 46.644531 268.542969 27.078125 C 385.652344 0.867188 515.289062 38.851562 598.855469 128.117188 C 656.03125 189.199219 689.398438 271.71875 689.808594 356.171875 Z M 678.71875 357.53125 L 675.03125 357.53125 L 675.03125 356.21875 C 674.476562 242.0625 608.886719 131.664062 507.636719 75.21875 C 411.203125 21.457031 287.480469 19.300781 188.121094 72.359375 C 102.824219 117.921875 38.992188 202.644531 21.023438 297.945312 C 17.316406 317.605469 15.574219 337.574219 15.714844 357.53125 L 11.8125 357.53125 L 11.8125 357.261719 C 11.8125 258.125 60.011719 160.832031 139.453125 99.460938 C 229.472656 29.925781 355.4375 10.355469 463.679688 50.832031 C 586.324219 96.695312 678.046875 217.449219 678.71875 356.203125 Z M 667.992188 357.53125 L 664.300781 357.53125 L 664.300781 356.25 C 663.757812 243.800781 597.972656 135.414062 497.292969 81.636719 C 402.777344 31.148438 282.859375 31.238281 187.339844 84.863281 C 108.28125 129.246094 49.347656 208.78125 31.941406 297.953125 C 28.109375 317.582031 26.316406 337.558594 26.472656 357.53125 L 23.027344 357.53125 C 23.167969 297.726562 40.03125 237.839844 72.894531 187.148438 C 118.0625 117.484375 191.066406 66.675781 272.429688 48.203125 C 364.855469 27.214844 466.089844 48.3125 542.15625 106.003906 C 619.042969 164.304688 667.515625 258.363281 667.992188 356.234375 Z M 657.609375 357.53125 L 653.914062 357.53125 L 653.914062 356.28125 C 653.394531 248.191406 590.257812 142.914062 492.34375 90.609375 C 388.007812 34.867188 251.71875 44.253906 155.476562 118.140625 C 82.191406 174.402344 36.609375 264.65625 36.609375 357.261719 L 36.613281 357.53125 L 33.136719 357.53125 C 33.570312 281.601562 62.777344 205.714844 115.378906 149.53125 C 173.851562 87.066406 258.726562 50.554688 344.253906 50.285156 C 446.933594 49.960938 548.957031 102.574219 606.828125 189.507812 C 639.460938 238.53125 657.320312 297.148438 657.609375 356.269531 Z M 647.5625 357.53125 L 643.871094 357.53125 L 643.871094 356.316406 C 643.300781 237.695312 564.851562 124.578125 449.613281 82.289062 C 339.808594 41.988281 207.777344 70.808594 125.46875 158.734375 C 75.671875 211.925781 47.273438 284.351562 46.863281 357.53125 L 43.234375 357.53125 C 43.917969 269.546875 84.882812 181.949219 155.847656 125.769531 C 248.195312 52.664062 383.4375 39.488281 489.300781 96.03125 C 582.59375 145.863281 647.027344 245.914062 647.5625 356.300781 Z M 637.839844 357.53125 L 634.148438 357.53125 L 634.148438 356.34375 C 633.664062 256.175781 576.007812 159.175781 486.746094 109.761719 C 425.421875 75.816406 351.484375 65.132812 282.675781 80.089844 C 192.101562 99.777344 112.410156 165.1875 77.078125 251.621094 C 63.363281 285.179688 56.695312 321.347656 56.855469 357.53125 L 53.171875 357.53125 C 53.3125 302.964844 68.777344 248.339844 98.820312 202.308594 C 140.367188 138.640625 207.738281 92.601562 281.890625 76.484375 C 381.136719 54.914062 490.5 87.78125 560.601562 162.675781 C 609.167969 214.558594 637.496094 284.621094 637.839844 356.335938 Z M 628.433594 357.53125 L 624.742188 357.53125 L 624.742188 356.378906 C 624.203125 245.664062 550.550781 139.027344 442.128906 99.613281 C 339.632812 62.347656 216.582031 89.160156 139.546875 171.453125 C 92.820312 221.367188 66.316406 289.132812 65.960938 357.53125 L 62.097656 357.53125 L 62.097656 357.261719 C 62.097656 244.554688 137.289062 136.078125 247.140625 96.140625 C 350.8125 58.453125 475.628906 85.550781 553.679688 168.929688 C 600.742188 219.203125 628.09375 286.957031 628.433594 356.363281 L 628.433594 357.53125 " fill-opacity="1" fill-rule="evenodd"/></g></svg>