<svg height="922" preserveAspectRatio="xMidYMid meet" viewBox="0 0 411.75 691.499984" width="549" xmlns="http://www.w3.org/2000/svg" xmlns:xlink="http://www.w3.org/1999/xlink" zoomAndPan="magnify"><clipPath id="a"><path d="m72 1h339.386719v690h-339.386719zm0 0"/></clipPath><g clip-path="url(#a)"><path d="m411.445312 1.09375v3.695312h-1.351562c-118.0625.570313-232.300781 68.425782-290.691406 173.171876-55.667969 99.855468-57.640625 227.398437-3.433594 329.625 46.492188 87.683593 132.828125 153.738281 230.765625 173.175781 21.304687 4.230469 43.007813 6.257812 64.710937 6.171875v3.265625c-63.875-.167969-127.898437-18.148438-182.035156-53.242188-74.644531-48.390625-129.113281-126.753906-148.695312-214.238281-26.234375-117.210938 11.78125-246.957031 101.125-330.59375 61.132812-57.226562 143.722656-90.621094 228.246094-91.03125zm0 11.097656v3.691406h-1.3125c-114.253906.558594-224.742187 66.203126-281.238281 167.539063-53.808593 96.511719-55.964843 220.34375-2.859375 319.785156 45.597656 85.371094 130.394532 149.253907 225.773438 167.238281 19.679687 3.710938 39.664062 5.453126 59.636718 5.3125v3.90625h-.269531c-99.21875 0-196.59375-48.242187-258.015625-127.75-69.597656-90.09375-89.179687-216.164062-48.671875-324.496093 45.902344-122.753907 166.757813-214.550781 305.628907-215.226563zm0 10.738282v3.695312h-1.28125c-112.542968.542969-221.019531 66.382812-274.847656 167.148438-50.527344 94.59375-50.4375 214.613281 3.230469 310.214843 44.421875 79.128907 124.023437 138.109375 213.273437 155.527344 19.644532 3.839844 39.636719 5.632813 59.625 5.476563v3.449218c-59.851562-.144531-119.789062-17.019531-170.527343-49.910156-69.722657-45.207031-120.570313-118.273438-139.058594-199.703125-21.007813-92.507813.109375-193.828125 57.847656-269.957031 58.351563-76.949219 152.488281-125.464844 250.445313-125.941406zm0 10.390624v3.699219h-1.246093c-108.183594.519531-213.550781 63.710938-265.902344 161.707031-55.789063 104.421876-46.394531 240.828126 27.558594 337.152344 56.308593 73.347656 146.636719 118.964844 239.320312 118.964844l.269531-.003906v3.480468c-75.992187-.433593-151.945312-29.664062-208.175781-82.3125-62.519531-58.519531-99.058593-143.46875-99.328125-229.066406-.324218-102.765625 52.332032-204.878906 139.34375-262.796875 49.0625-32.660156 107.730469-50.535156 166.898438-50.824219zm0 10.054688v3.695312h-1.214843c-118.722657.570313-231.933594 79.085938-274.257813 194.421876-40.335937 109.898437-11.492187 242.039062 76.507813 324.421874 53.238281 49.839844 125.722656 78.261719 198.964843 78.671876v3.628906c-88.054687-.683594-175.730468-41.683594-231.957031-112.707032-73.164062-92.425781-86.355469-227.78125-29.761719-333.734374 49.875-93.375 150.007813-157.863282 260.492188-158.398438zm0 9.734375v3.691406h-1.1875c-100.25.484375-197.335937 58.191407-246.789062 147.527344-33.976562 61.375-44.667969 135.375-29.695312 204.242187 19.703124 90.652344 85.167968 170.410157 171.675781 205.773438 33.585937 13.726562 69.785156 20.398438 105.996093 20.238281v3.6875c-54.609374-.140625-109.285156-15.617187-155.351562-45.683593-63.71875-41.585938-109.800781-109.011719-125.933594-183.226563-21.585937-99.332031 11.308594-208.789063 86.265625-278.949219 51.929688-48.605468 122.046875-76.957031 193.824219-77.300781zm0 9.410156v3.699219h-1.152343c-110.804688.535156-217.535157 74.253906-256.980469 182.765625-37.296875 102.582031-10.464844 225.738281 71.898438 302.835937 49.957031 46.769532 117.777343 73.292969 186.234374 73.652344v3.863282h-.269531c-112.800781 0-221.367187-75.253907-261.339843-185.199219-37.71875-103.757813-10.601563-228.679688 72.851562-306.796875 50.316406-47.101563 118.125-74.480469 187.589844-74.820313z" fill="#374e25" fill-rule="evenodd"/></g></svg>