<svg xmlns="http://www.w3.org/2000/svg" xmlns:xlink="http://www.w3.org/1999/xlink" width="365" zoomAndPan="magnify" viewBox="0 0 273.75 137.249994" height="183" preserveAspectRatio="xMidYMid meet" version="1.0"><defs><clipPath id="90a6f5b8c4"><path d="M 118.867188 27.902344 L 185.03125 27.902344 L 185.03125 94.066406 L 118.867188 94.066406 Z M 118.867188 27.902344 " clip-rule="nonzero"/></clipPath><clipPath id="bdc4e14aca"><path d="M 151.949219 27.902344 C 133.679688 27.902344 118.867188 42.710938 118.867188 60.984375 C 118.867188 79.253906 133.679688 94.066406 151.949219 94.066406 C 170.21875 94.066406 185.03125 79.253906 185.03125 60.984375 C 185.03125 42.710938 170.21875 27.902344 151.949219 27.902344 Z M 151.949219 27.902344 " clip-rule="nonzero"/></clipPath><clipPath id="c30756efd7"><path d="M 1.101562 0.253906 L 272.867188 0.253906 L 272.867188 136.136719 L 1.101562 136.136719 Z M 1.101562 0.253906 " clip-rule="nonzero"/></clipPath></defs><g clip-path="url(#90a6f5b8c4)"><g clip-path="url(#bdc4e14aca)"><path fill="#00c2cb" d="M 118.867188 27.902344 L 185.03125 27.902344 L 185.03125 94.066406 L 118.867188 94.066406 Z M 118.867188 27.902344 " fill-opacity="1" fill-rule="nonzero"/></g></g><g clip-path="url(#c30756efd7)"><path fill="#ffc966" d="M 272.753906 0.253906 C 272.753906 75.3125 211.925781 136.136719 136.871094 136.136719 C 61.8125 136.136719 1.21875 75.3125 1.21875 0.253906 Z M 272.753906 0.253906 " fill-opacity="1" fill-rule="nonzero"/></g></svg>