<svg xmlns="http://www.w3.org/2000/svg" xmlns:xlink="http://www.w3.org/1999/xlink" width="1372" zoomAndPan="magnify" viewBox="0 0 1029 1099.499972" height="1466" preserveAspectRatio="xMidYMid meet" version="1.0"><defs><clipPath id="9e80d8e9b9"><path d="M 0.394531 71.21875 L 478.976562 71.21875 L 478.976562 1028.382812 L 0.394531 1028.382812 Z M 0.394531 71.21875 " clip-rule="nonzero"/></clipPath><clipPath id="94177f4cb0"><path d="M 478.976562 71.21875 L 478.976562 1028.382812 C 214.664062 1028.382812 0.394531 814.113281 0.394531 549.800781 C 0.394531 285.488281 214.664062 71.21875 478.976562 71.21875 Z M 478.976562 71.21875 " clip-rule="nonzero"/></clipPath><clipPath id="db0221bfaa"><path d="M 478.648438 1 L 1028.148438 1 L 1028.148438 1098.867188 L 478.648438 1098.867188 Z M 478.648438 1 " clip-rule="nonzero"/></clipPath></defs><g clip-path="url(#9e80d8e9b9)"><g clip-path="url(#94177f4cb0)"><path fill="#ff914d" d="M 0.394531 71.21875 L 478.976562 71.21875 L 478.976562 1028.382812 L 0.394531 1028.382812 Z M 0.394531 71.21875 " fill-opacity="1" fill-rule="nonzero"/></g></g><g clip-path="url(#db0221bfaa)"><path fill="#6bd6a6" d="M 1028.148438 1098.398438 C 724.625 1098.398438 478.648438 852.59375 478.648438 549.277344 C 478.648438 245.964844 724.625 1.085938 1028.148438 1.085938 Z M 1028.148438 1098.398438 " fill-opacity="1" fill-rule="nonzero"/></g></svg>